<?xml version="1.0" encoding="UTF-8" standalone="no"?>
<svg
   version="1.1"
   id="Layer_1"
   x="0px"
   y="0px"
   width="50"
   height="50"
   viewBox="0 0 49.999999 49.999998"
   enable-background="new 0 0 122.883 122.882"
   xml:space="preserve"
   sodipodi:docname="angle-circle-arrow-up.svg"
   xmlns="http://www.w3.org/2000/svg"
   xmlns:svg="http://www.w3.org/2000/svg"><defs
   id="defs9" />
  <g
   class=svg-circle 
   transform="matrix(0.40689442,0,0,0.40689442,0.02091965,0.01085822)">
    <path
   d="m 0,61.441 v 0 h 0.018 c 0,16.976 6.872,32.335 17.98,43.443 11.108,11.107 26.467,17.979 43.441,17.979 v 0.018 h 10e-4 0.001 v -0.018 c 16.974,0 32.335,-6.872 43.443,-17.98 11.108,-11.108 17.98,-26.467 17.98,-43.441 h 0.018 V 61.441 61.44 h -0.018 c 0,-16.975 -6.873,-32.334 -17.98,-43.443 C 93.775,6.89 78.418,0.018 61.443,0.018 V 0 H 61.441 V 0 0.018 C 44.466,0.018 29.106,6.89 17.998,17.998 6.89,29.106 0.018,44.465 0.018,61.439 H 0 Z M 42.48,71.7 c -1.962,1.908 -5.101,1.865 -7.009,-0.098 -1.909,-1.962 -1.865,-5.101 0.097,-7.009 l 22.521,-21.839 3.456,3.553 -3.46,-3.569 c 1.971,-1.911 5.117,-1.862 7.029,0.108 0.055,0.058 0.109,0.115 0.16,0.175 L 87.33,64.594 c 1.963,1.908 2.006,5.047 0.098,7.009 -1.908,1.963 -5.047,2.006 -7.01,0.098 L 61.53,53.227 Z"
     >
   </g>
</svg>
